<svg xmlns="http://www.w3.org/2000/svg" id="Layer_1" data-name="Layer 1" viewBox="0 0 3231.13 1162.3"><defs><style>.cls-1{fill:#fff;}.cls-2{fill:#f37a20;}</style></defs><path class="cls-1" d="M1031.68,613.07a103.69,103.69,0,0,1-6.44,35.95,80,80,0,0,1-18.39,29.52A112.26,112.26,0,0,1,970.34,703q-20.13,8.28-50.11,8.28h-44v89.2H805.65V526.63H921.88q26.11,0,44,4.51a103.77,103.77,0,0,1,31.72,13.51,72.77,72.77,0,0,1,25.29,27.77Q1031.67,589.36,1031.68,613.07Zm-73,1.57a32.26,32.26,0,0,0-6.25-19.91,34,34,0,0,0-14.53-11.65,65.41,65.41,0,0,0-21.52-4.86q-10.47-.47-28-.46H876.27V659.6H896.5q18,0,29.7-2.2a42.14,42.14,0,0,0,19.59-8.81,33.79,33.79,0,0,0,9.84-14Q958.66,626.39,958.66,614.64Z"></path><path class="cls-1" d="M1289.16,697.3q0,51-29.71,80.28t-83.4,29.33q-53.7,0-83.4-29.33t-29.71-80.28q0-51.31,29.89-80.55t83.22-29.24q54.08,0,83.59,29.42T1289.16,697.3Zm-81.48,50.21a53.26,53.26,0,0,0,9.66-19q3.21-11.13,3.22-30.81,0-18.21-3.31-30.53t-9.2-19.68a32.33,32.33,0,0,0-14.16-10.67,50.19,50.19,0,0,0-17.84-3.12,52.07,52.07,0,0,0-17,2.57q-7.45,2.58-14.26,10.3-6.06,7.17-9.65,19.68t-3.59,31.45q0,16.92,3.13,29.33t9.2,20a35,35,0,0,0,14.06,10.48,52.33,52.33,0,0,0,35.87.28A31.59,31.59,0,0,0,1207.68,747.51Z"></path><path class="cls-1" d="M1666,593.94l-64,206.54h-70.28l-42.09-139.23-41.57,139.23h-71l-63.45-206.54h69.45l35.46,142.35,44.06-142.35h58.67l41.89,142.35L1598,593.94Z"></path><path class="cls-1" d="M1908.94,709.44H1757.4q1.47,24.27,18.48,37.15T1826,759.46a112.57,112.57,0,0,0,40.64-7.54q19.68-7.53,31.09-16.18h7.35v53.15a246,246,0,0,1-42.3,13.06,221.22,221.22,0,0,1-44,4q-62.17,0-95.27-28t-33.1-79.63q0-51.13,31.35-81t86-29.88q50.4,0,75.77,25.47t25.38,73.29Zm-65.84-38.81q-.54-20.77-10.3-31.26t-30.34-10.48q-19.12,0-31.45,9.93t-13.79,31.81Z"></path><path class="cls-1" d="M2105.36,657h-5.87q-4.22-1.46-13.58-2.2t-15.6-.74a151,151,0,0,0-25,1.84,142,142,0,0,0-23.31,6.25V800.48h-66.39V593.94h66.39v30.35q21.84-18.76,38-24.92t29.74-6.16q3.48,0,7.89.18c2.93.12,5.5.31,7.7.55Z"></path><path class="cls-1" d="M2270.33,805.81q-30.52,0-56.36-9A120.47,120.47,0,0,1,2169.55,770q-18.57-17.84-28.78-44.51t-10.21-61.61q0-32.55,9.75-59a126.17,126.17,0,0,1,28.32-45.42q17.84-18.21,44.23-28.14t57.66-9.93a227.43,227.43,0,0,1,31.17,1.93,215.51,215.51,0,0,1,25.66,5.06,182.2,182.2,0,0,1,22.34,7.81q10,4.32,17.57,8v66.39h-8.1q-5.14-4.38-13-10.42a170.35,170.35,0,0,0-17.75-11.9,123.05,123.05,0,0,0-21.88-9.88,77.48,77.48,0,0,0-25.2-4,85.16,85.16,0,0,0-28.32,4.69,68.77,68.77,0,0,0-24.83,15.5q-10.86,10.47-17.57,27.72T2203.94,664q0,25.69,7.27,43t18.3,27.16a66.77,66.77,0,0,0,25,14.41,90.69,90.69,0,0,0,27.22,4.31,86.93,86.93,0,0,0,25.47-3.84,99,99,0,0,0,23.26-10.43,153.59,153.59,0,0,0,16.74-11.34q7.73-6,12.69-10.43h7.36v65.47q-10.31,4.61-19.68,8.64a161.42,161.42,0,0,1-19.68,7,235.46,235.46,0,0,1-25.2,5.89Q2290.93,805.8,2270.33,805.81Z"></path><path class="cls-1" d="M2540.5,778.59q-5.33,4-13.24,9.75a96.59,96.59,0,0,1-14.9,9,94.06,94.06,0,0,1-20.23,6.53,116.35,116.35,0,0,1-23,2.11q-29.41,0-49.28-18.2T2400,741.26q0-22.62,10.12-37t28.69-22.62q18.39-8.28,45.61-11.77t56.46-5.15v-1.1q0-17.11-14-23.64t-41.19-6.53a117.41,117.41,0,0,0-34.95,5.8q-18.57,5.79-26.66,8.92H2418V598.36q10.49-2.76,34.11-6.53a300.6,300.6,0,0,1,47.36-3.77q56.46,0,81.57,17.38t25.1,54.53V800.48H2540.5Zm0-32.14v-42.9q-13.42,1.11-29.06,3t-23.72,4.49q-9.93,3.12-15.17,9.08t-5.24,15.67a40.49,40.49,0,0,0,1.1,10.45q1.1,4,5.52,7.7a26.76,26.76,0,0,0,10.11,5.41q5.88,1.74,18.39,1.74a54.49,54.49,0,0,0,20.14-4A62.7,62.7,0,0,0,2540.5,746.45Z"></path><path class="cls-1" d="M2882.58,694.36q0,48.74-26.91,79.45t-67.14,30.71q-17.27,0-30.31-3.68a102.86,102.86,0,0,1-24.79-10.66l-2.77,10.3H2667V514.31h66.39V615.46a161,161,0,0,1,31.13-19.68q15.89-7.53,36.65-7.54,39.12,0,60.25,28.23T2882.58,694.36Zm-68.23,1.38q0-27.54-9.36-42.42t-33.39-14.87a69.48,69.48,0,0,0-19.27,2.85,80.18,80.18,0,0,0-18.9,8.17V753a68.65,68.65,0,0,0,13.58,3.49,109.62,109.62,0,0,0,15.41.92q26.23,0,39.09-15.42T2814.35,695.74Z"></path><path class="cls-1" d="M3109.9,735q0,32-28.69,51.59t-78.53,19.59q-27.58,0-50-5.15t-36-11.4V735.19h6.07q5,3.49,11.49,7.63a116.66,116.66,0,0,0,18.48,8.92A152.18,152.18,0,0,0,2976,759a122.8,122.8,0,0,0,27.95,3q19.5,0,28.88-4.32t9.38-12.78q0-7.55-5.52-11t-21-6.53q-7.36-1.65-20-3.58a215.07,215.07,0,0,1-22.9-4.69q-28.14-7.37-41.74-22.9t-13.61-38.71q0-29.8,28.23-49.57t77.15-19.77a205.21,205.21,0,0,1,44.41,4.69q21.24,4.7,33.2,10v52.24h-5.7a134.54,134.54,0,0,0-33.57-16.46,118.85,118.85,0,0,0-38.16-6.35q-16,0-26.94,4.41t-10.94,12.51c0,4.91,1.65,8.64,5,11.22s11.1,5.15,23.36,7.72q10.11,2,21.79,4t23.45,4.87q26.11,6.81,38.62,21.43T3109.9,735Z"></path><path class="cls-2" d="M121.23,848.85c7.71-6.33,15.7-12.36,23.08-19,32.69-29.51,39.41-58.36,23.31-98.35-6.93-17.2-14.44-34.23-20.48-51.72-7.85-22.73-8.55-45.8.28-68.65a12.34,12.34,0,0,0,.85-3c.08-.64-.27-1.32-1.16-5-6.42,11.67-11.71,21.26-16.92,30.71-2-16.61,7-40.48,24.32-53.48,16.6-12.45,35.71-21.83,52.9-32.07-20.6,1.45-38.61,12.09-55.85,24.94,3.12-43.91,74-68.1,127.28-43.14,8.68-28.42,33.23-40.6,58.52-52,19.06-8.62,38.66-16.35,56.88-26.38C404.76,445.85,413,436.3,421,426.88c-14.3,11.24-26.63,25.51-50.85,20,4.3-2.18,7-3,8.85-4.6,7.84-6.88,17.72-12.81,22.66-21.31,11.68-20.11,21-41.5,32.59-65.1-5.93,6-10.77,9.88-14.23,14.67-7,9.73-12.84,20.26-20,29.88-6.71,9-15.89,15-28.36,15.61,15.45-8.45,18.26-23,22.21-37.69,4.37-16.25,11.14-31.92,16.93-48-7.66-.36-14.32,4.18-18.85,11.16-5.56,8.56-10.35,17.59-15,26.62-9.48,18.21-22.79,31.52-45.29,33.27a42.72,42.72,0,0,1-14-1.66c29-6.81,35.42-27.64,35.83-51.44.44-25.29,5.34-48.56,26.62-66.51-19.88,3.77-37.6,17.13-60.15,8.51,3.24-1.15,5.36-2.21,7.6-2.66,13.73-2.79,24.09-10.2,30.27-22,15.58-29.75,35.85-54.93,71.95-67.86L405.69,188c12.59-1.27,23.2-.64,32.44-3.75s17.37-10,26.53-15.61L436.8,156.11c.37-1,.75-2,1.12-3h35.53c.13-1,.27-1.91.4-2.87l-11.69-6.91c41.8-4.24,81.46-12.86,121.85-3,4.28,1,9.89-2.08,14.66-3.84,9.11-3.35,18.06-7.12,27.07-10.71l3.69,3.83c-2.94,6.9-5.89,13.8-8.47,19.84,7.26,8.68,14.48,18.66,23.14,27.33,9.94,10,21,18.89,31.86,28,3.79,3.2,8.67,5.28,12.23,8.67,7.25,6.92,8.35,19.55,2,24.27-14.76,11.06-21.55,16.94-32,4.41-2.6-3.11-8.77-4.61-13.38-4.79-7.58-.31-15.21,1.21-22.84,1.7-16.15,1-32.28,1.84-45-11.33l-3.16,1.2c0,7.56-2.06,15.83.47,22.5,4.14,10.94,10.56,21.27,17.27,31.08,11.73,17.12,24.19,33.81,37,50.22,1.51,1.95,8.31,2.72,10.44,1.19,9.87-7.06,19-15.09,28.3-22.87,3.28-2.75,6.08-6.07,9.51-8.6,14.8-10.93,22.34-10.35,36.46,1.09a352.73,352.73,0,0,0,32,23.58c23.18,14.77,34.94,35.79,38.7,61.47a22.64,22.64,0,0,1-1.57,12.22c-1,2.21-6,5-7.89,4.23a310.08,310.08,0,0,1-30.54-13.63c-6.41-3.26-5.87-7.55-.91-12.54,9.08-9.11,9.67-14-.23-21.6a198.51,198.51,0,0,0-34.91-20.79c-9-4.27-16.79-2.13-22.42,7.81-13.1,23.11-27.4,45.6-40.07,69.56,9.15-9.16,17.77-18.89,27.62-27.31,7.67-6.56,17-10.54,28.15-7.81,8.59,2.11,13.49,6.68,16.06,15.07,4.39,14.3,8.62,28.92,15.52,42.15,6.52,12.48,9,24,6.37,37.92-4.65,24.28-8.42,48.44-31.62,64.13-3.19,2.16-6.33,4.39-10.74,7.46-10.61-16.7-18.83-33.07-18.92-52.05,0-2.34,5.28-6.85,7.87-6.7,24.05,1.43,23.83-9.35,21.92-26.07a59.82,59.82,0,0,0-6.44-19.78c-7.4-14.53-17.45-16.41-29.08-4.88a212.65,212.65,0,0,0-23,27.77c-11.5,16.1-22.33,32.64-33.12,49.19-4.94,7.58-11.48,10-20.75,10.81s-19.34,3.37-27.43,7.85c-25.19,13.94-49.9,28.74-74.19,44.09a105.1,105.1,0,0,0-24,21c-11.77,14-15.78,30.27-10.19,48.13,6.92,22.08,4.34,43.22-6.68,63.75-7.31,13.62-13.3,27.88-20.51,41.54-18.53,35.1-14.26,69.13,6.49,101.41,12.94,20.13,28.66,38.6,42.68,58.11,6,8.41,10.9,17.57,17.55,28.44H427.46c4.42-6.28,8.18-11.26,11.54-16.48,3.64-5.64,2.89-10-3.55-14-3.39-2.1-6.9-6.53-7.26-10.19-1.95-19.61-10.77-36-24-50.5-6.94-7.62-14-15.11-21.15-22.59-13.26-13.93-18.32-29.73-12.41-48.21,5.53-17.29,9.51-35.18,16.78-51.75,5.39-12.29,3.24-22.43-.88-31.09,0,7.13,3.23,18.19-.95,25.2-3.8,6.38-15.6,8.49-24,12.28-34.74,15.73-45.49,41.56-30.26,78.12,10.77,25.82,24,50.71,36,76,8.13,17,16.23,34.06,24.94,52.34H323.42c4.9-6.65,9.45-13,14.25-19.28,4.6-6,3.4-9.28-3.66-12.88-4-2-7.86-7.27-8.55-11.55-6-36.93-20.26-70.25-44.42-99.75-12.72-15.53-12.43-27.88.6-43.51,6.81-8.16,15.4-15.14,21.19-23.86,7.9-11.9,14.45-24.71,20.55-37.58,5.39-11.36-.13-20.55-8.14-29.25-12-13-22.54-27.2-35-39.7a42.7,42.7,0,0,0-21-10.86c-24.11-4.68-49,8.47-60.24,30.72,7.54-5.31,14.18-11,21.74-15,7.75-4.17,16.4-6.8,25.55-9-15.65,12.24-27.6,26.39-32.81,45.1a105.57,105.57,0,0,0-1,54.61c.53-25,1.75-49.79,20.15-70-7.1,28.36,7.77,53.43,12.59,79.77,6,32.81-4,59.15-30.09,80.14C188,827.18,155.56,839.44,121.23,848.85Z"></path><path class="cls-1" d="M852.72,936.07a15.77,15.77,0,0,1-1.79,7.64,15.42,15.42,0,0,1-5,5.46,23.11,23.11,0,0,1-7.67,3.26,42,42,0,0,1-9.87,1.08c-1.62,0-3.24-.07-4.85-.19s-3.15-.28-4.64-.47-2.88-.41-4.19-.66-2.5-.51-3.57-.79v-8.07a43.44,43.44,0,0,0,7.9,2.07,59.52,59.52,0,0,0,10,.75,31.47,31.47,0,0,0,6.87-.64,13.12,13.12,0,0,0,4.64-1.87,7.55,7.55,0,0,0,2.63-3,9.78,9.78,0,0,0,.82-4.08,6.64,6.64,0,0,0-1.39-4.25,13.77,13.77,0,0,0-3.63-3.14,34.05,34.05,0,0,0-5.13-2.53q-2.88-1.14-5.88-2.36c-2-.82-4-1.7-5.89-2.65a24.52,24.52,0,0,1-5.13-3.38,15.48,15.48,0,0,1-3.63-4.57,13.23,13.23,0,0,1-1.39-6.23,15.42,15.42,0,0,1,1.32-6.19,14.64,14.64,0,0,1,4.08-5.41,20.89,20.89,0,0,1,7.1-3.82,32.57,32.57,0,0,1,10.33-1.46c1,0,2.15.05,3.35.14s2.43.23,3.66.4,2.45.37,3.66.59,2.32.45,3.35.7v7.5a56.49,56.49,0,0,0-7.22-1.57,47.18,47.18,0,0,0-7-.54q-7.19,0-10.55,2.39a7.5,7.5,0,0,0-3.38,6.42,6.72,6.72,0,0,0,1.39,4.27,13.72,13.72,0,0,0,3.63,3.19,32.27,32.27,0,0,0,5.13,2.55l5.88,2.37c2,.81,4,1.7,5.89,2.67a24,24,0,0,1,5.13,3.45,15.85,15.85,0,0,1,3.63,4.66A13.62,13.62,0,0,1,852.72,936.07Z"></path><path class="cls-1" d="M950.44,952.66H915.61V891.4h34.83v7H924v19h25.46v7H924v21.1h26.49Z"></path><path class="cls-1" d="M1055.66,952.66h-9.42l-9.15-19.59a22,22,0,0,0-2.1-3.73,10.31,10.31,0,0,0-2.32-2.34,8.29,8.29,0,0,0-2.72-1.24,13.5,13.5,0,0,0-3.31-.38h-3.94v27.28h-8.34V891.4h16.41a31.72,31.72,0,0,1,9.18,1.17,17.2,17.2,0,0,1,6.31,3.28,12.61,12.61,0,0,1,3.61,5.09,18.25,18.25,0,0,1,1.15,6.58,17,17,0,0,1-.85,5.42,15,15,0,0,1-2.5,4.64,16.1,16.1,0,0,1-4.13,3.61,18.94,18.94,0,0,1-5.65,2.27,9.51,9.51,0,0,1,4.38,3.12,33.08,33.08,0,0,1,3.68,5.93Zm-13.36-44.44c0-3.28-1-5.73-3.07-7.35s-4.93-2.44-8.65-2.44h-7.88v20.25h6.75a19.34,19.34,0,0,0,5.32-.68,11.53,11.53,0,0,0,4-2,9.07,9.07,0,0,0,2.57-3.28A10.42,10.42,0,0,0,1042.3,908.22Z"></path><path class="cls-1" d="M1159.19,891.4l-20.81,61.26h-11.25l-20.34-61.26h9.42l13.22,41.29,3.75,12.1,3.84-12.1,13.27-41.29Z"></path><path class="cls-1" d="M1229,898.43h-14.1v-7h36.65v7h-14.11v47.11h14.11v7.12h-36.65v-7.12H1229Z"></path><path class="cls-1" d="M1353.65,950.37a40,40,0,0,1-15.42,3q-13,0-20-7.76t-7-22.94a43.21,43.21,0,0,1,1.92-13.31,28.92,28.92,0,0,1,5.49-10.11,24.17,24.17,0,0,1,8.62-6.39,27.68,27.68,0,0,1,11.35-2.25,41,41,0,0,1,7.92.72,33.64,33.64,0,0,1,7,2.23v8.2a31.12,31.12,0,0,0-6.89-2.79,29.88,29.88,0,0,0-7.78-1,18.34,18.34,0,0,0-7.81,1.62,16.17,16.17,0,0,0-5.93,4.69,22,22,0,0,0-3.75,7.5,35.75,35.75,0,0,0-1.31,10.1q0,11.91,4.83,17.95t14.15,6.05a30.62,30.62,0,0,0,7.55-.92,34.78,34.78,0,0,0,6.94-2.55Z"></path><path class="cls-1" d="M1451.46,952.66h-34.83V891.4h34.83v7H1425v19h25.45v7H1425v21.1h26.48Z"></path><path class="cls-1" d="M1658.29,891.4l-4.12,61.26h-10.83l-7.59-21.79-2.11-7-2.2,7.55-7,21.23H1614l-4.22-61.26h7.88l2.39,41.67.7,11.44,3-9.71,7.41-22.73h5.77l8.53,24.37,2.86,8.07.18-8.44,2.44-44.67Z"></path><path class="cls-1" d="M1730,898.43h-14.11v-7h36.66v7h-14.11v47.11h14.11v7.12h-36.66v-7.12H1730Z"></path><path class="cls-1" d="M1856.78,898.52h-18.14v54.14h-8.43V898.52h-18.14V891.4h44.71Z"></path><path class="cls-1" d="M1955.86,952.66h-8.34V924.54h-25.73v28.12h-8.35V891.4h8.35v25.92h25.73V891.4h8.34Z"></path><path class="cls-1" d="M2152.9,952.66h-34.83V891.4h34.83v7h-26.48v19h25.45v7h-25.45v21.1h26.48Z"></path><path class="cls-1" d="M2260.51,952.66H2250l-14.9-24.75-14.95,24.75H2209.7l20.39-31.31-18.75-30h9.89l14,23.06,14.11-23.06h9.6L2240.17,921Z"></path><path class="cls-1" d="M2355.7,950.37a40,40,0,0,1-15.42,3q-13,0-20-7.76t-7-22.94a43.21,43.21,0,0,1,1.92-13.31,29.08,29.08,0,0,1,5.49-10.11,24.17,24.17,0,0,1,8.62-6.39,27.68,27.68,0,0,1,11.35-2.25,41,41,0,0,1,7.92.72,33.46,33.46,0,0,1,7,2.23v8.2a30.93,30.93,0,0,0-6.89-2.79,29.82,29.82,0,0,0-7.78-1,18.34,18.34,0,0,0-7.81,1.62,16.25,16.25,0,0,0-5.93,4.69,22,22,0,0,0-3.75,7.5,35.75,35.75,0,0,0-1.31,10.1q0,11.91,4.83,17.95t14.16,6.05a30.54,30.54,0,0,0,7.54-.92,34.78,34.78,0,0,0,6.94-2.55Z"></path><path class="cls-1" d="M2453.52,952.66h-34.83V891.4h34.83v7H2427v19h25.45v7H2427v21.1h26.49Z"></path><path class="cls-1" d="M2555.64,952.66h-35.25V891.4h8.49v54.14h26.76Z"></path><path class="cls-1" d="M2655.85,952.66H2620.6V891.4h8.48v54.14h26.77Z"></path><path class="cls-1" d="M2754.13,952.66H2719.3V891.4h34.83v7h-26.48v19h25.45v7h-25.45v21.1h26.48Z"></path><path class="cls-1" d="M2857.34,952.66h-10.88l-17.86-38.2-5.15-12.28v50.48h-7.78V891.4h10.73l17,36.18,6.14,14V891.4h7.78Z"></path><path class="cls-1" d="M2956.93,950.37a39.89,39.89,0,0,1-15.42,3q-13,0-19.94-7.76t-7-22.94a43.21,43.21,0,0,1,1.93-13.31,29.06,29.06,0,0,1,5.48-10.11,24.21,24.21,0,0,1,8.63-6.39,27.59,27.59,0,0,1,11.34-2.25,41,41,0,0,1,7.92.72,33.46,33.46,0,0,1,7,2.23v8.2A30.93,30.93,0,0,0,2950,899a29.82,29.82,0,0,0-7.78-1,18.3,18.3,0,0,0-7.8,1.62,16.09,16.09,0,0,0-5.93,4.69,21.64,21.64,0,0,0-3.75,7.5,35.37,35.37,0,0,0-1.32,10.1q0,11.91,4.83,17.95t14.16,6.05A30.68,30.68,0,0,0,2950,945a34.92,34.92,0,0,0,6.93-2.55Z"></path><path class="cls-1" d="M3054.75,952.66h-34.83V891.4h34.83v7h-26.49v19h25.46v7h-25.46v21.1h26.49Z"></path></svg>